<svg width="47" height="47" viewBox="0 0 47 47" fill="none" xmlns="http://www.w3.org/2000/svg">
<path d="M23.5153 0C36.4823 0.0082498 46.9923 10.5185 47 23.4856V23.5142C46.9923 36.4863 36.4741 47 23.5001 47C10.5214 47 0 36.4786 0 23.4999C0 10.5262 10.5132 0.0082498 23.4849 0L23.5153 0Z" fill="#FFC6A7"/>
<path d="M19.8212 0.284928L0.632812 18.0837C0.82613 17.2413 1.07008 16.4113 1.3633 15.5983L17.2824 0.837195L17.2825 0.837183L17.3216 0.82624L17.3216 0.826227L17.3607 0.815356L17.3607 0.815344L17.3999 0.804557L17.3999 0.804545L17.4391 0.793818L17.4391 0.793806L17.4783 0.783151L17.4783 0.783139L17.5175 0.772568L17.5175 0.772556L17.5568 0.762057L17.5568 0.762045L17.596 0.751607L17.5961 0.751594L17.6353 0.74124L17.6353 0.741228L17.6746 0.730946L17.6746 0.730934L17.7139 0.720724L17.714 0.720712L17.7533 0.710574L17.7533 0.710562L17.7926 0.700496L17.7926 0.700484L17.832 0.690503L17.832 0.690491L17.8714 0.680569L17.8714 0.680557L17.9108 0.67072V0.670708L17.9502 0.660931L17.9503 0.660919L17.9897 0.651226L17.9897 0.651214L18.0292 0.641593V0.641581L18.0686 0.632033V0.632021L18.1081 0.622544V0.622532L18.1476 0.613128H18.1477L18.1872 0.603796V0.603784L18.2267 0.594524V0.594512L18.2663 0.585336V0.585324L18.3059 0.57622V0.576208L18.3455 0.567177V0.567165C18.3719 0.561176 18.3983 0.555223 18.4247 0.549318V0.549306L18.4644 0.540491V0.540479L18.504 0.531736H18.504L18.5437 0.523066V0.523054L18.5834 0.514467V0.514455C18.6364 0.503042 18.6893 0.491822 18.7424 0.480818H18.7424C18.7689 0.475311 18.7954 0.469851 18.8219 0.464439L18.8617 0.456358H18.8617L18.9016 0.448348L18.9414 0.440411H18.9414L18.9812 0.432546H18.9813L19.0211 0.424766H19.0211L19.061 0.417057V0.417045L19.1009 0.40942L19.1009 0.409408L19.1408 0.401856L19.1408 0.401844L19.1807 0.394364L19.1807 0.394352L19.2207 0.386944V0.386932L19.2606 0.379608L19.2606 0.379596C19.2873 0.374738 19.3139 0.369915 19.3406 0.365153V0.365141C19.3806 0.357998 19.4206 0.350962 19.4606 0.344047V0.344035C19.5807 0.323267 19.701 0.30352 19.8214 0.28476L19.8212 0.284928Z" fill="#FF4242"/>
<path d="M26.9119 0.249246L0.0623184 25.1658L0.0595284 25.1407L0.0594322 25.1399L0.0568226 25.1156L0.0566422 25.1139L0.0542129 25.0905L0.0502203 25.0505C0.0472259 25.0198 0.0443998 24.989 0.041742 24.9582L0.0401546 24.9396L0.0395413 24.9323L0.0391565 24.9276L0.0374969 24.9071L0.0374247 24.9063L0.0360778 24.8893L0.0353803 24.8803L0.0350195 24.8754C0.0325061 24.8425 0.0301611 24.8095 0.0279844 24.7765L0.0279363 24.7759L0.0247734 24.7256L0.024593 24.7227C0.0236069 24.7062 0.0226328 24.6898 0.0217309 24.6733L0.0216106 24.6712C0 24.2805 0 23.888 0 23.4999V23.4109L25.1659 0.0621948H25.1659H25.166C25.6157 0.112992 26.1127 0.14604 26.6089 0.204666C26.7104 0.218712 26.8114 0.233564 26.9119 0.24927L26.9119 0.249246Z" fill="#FF4242"/>
<path d="M32.3724 1.78148L1.13992 30.7157C0.997079 30.3348 0.910804 29.8905 0.774094 29.4579V29.4579L0.766842 29.4351V29.4351L0.759494 29.4124V29.4124L0.75205 29.3897V29.3897L0.744498 29.367V29.367L0.736837 29.3444V29.3443L0.729068 29.3217V29.3217L0.721191 29.2992V29.2992L31.0094 1.22913C31.4548 1.37166 31.9181 1.54982 32.3724 1.78144L32.3724 1.78148Z" fill="#FF4242"/>
<path d="M37.0854 4.33813L3.36751 35.633L3.36749 35.633L3.35623 35.6146L3.35622 35.6146C3.26617 35.4677 3.17874 35.3207 3.09379 35.1731H3.09378L3.08318 35.1547H3.08317C3.07256 35.1362 3.06203 35.1178 3.05151 35.0993H3.05149L3.041 35.0809L3.03052 35.0624H3.03051L3.02006 35.0439H3.02005L3.00963 35.0254H3.00962L2.99923 35.007H2.99922L2.98885 34.9885H2.98884L2.9785 34.97L2.97849 34.97L2.96818 34.9515H2.96817L2.95787 34.933H2.95786L2.9476 34.9144H2.94759L2.93736 34.8959L2.93734 34.8959L2.92713 34.8774H2.92712L2.91694 34.8588H2.91692L2.90676 34.8403L2.89662 34.8217L2.89661 34.8217L2.88651 34.8032L2.8865 34.8031L2.87641 34.7846V34.7846L2.86636 34.766L2.86634 34.766L2.85631 34.7474L2.8563 34.7474L2.8463 34.7288L2.84628 34.7287L2.83631 34.7101L2.8363 34.7101L2.82636 34.6915L2.82634 34.6915L2.81641 34.6729L2.8164 34.6729L2.80651 34.6542L2.8065 34.6542L2.79663 34.6356L2.79662 34.6355L2.78677 34.6169L2.78676 34.6169L2.77694 34.5982L2.77693 34.5982L2.76714 34.5795L2.76712 34.5795L2.75736 34.5608L2.75734 34.5608L2.74761 34.5421L2.74759 34.5421L2.73788 34.5234L2.73787 34.5233L2.72819 34.5046L2.72816 34.5046L2.71851 34.4859L2.71848 34.4858L2.70886 34.4671L2.70884 34.4671L2.69924 34.4483L2.69922 34.4483L35.9498 3.56702L35.9718 3.58101L36.3252 3.81758L37.0853 4.33825L37.0854 4.33813Z" fill="#FF4242"/>
<path d="M40.711 7.51842L6.28048 39.4635C6.17915 39.3583 6.0791 39.2521 5.9803 39.145H5.98029L5.9662 39.1297H5.96618L5.93804 39.099H5.93803L5.924 39.0837H5.92398L5.90996 39.0683H5.90995L5.89594 39.0529L5.88194 39.0375L5.86797 39.0221L5.85401 39.0067L5.84006 38.9913L5.82613 38.9758L5.81222 38.9604L5.79833 38.9449V38.9449L5.78445 38.9294L5.75675 38.8984C5.63227 38.7588 5.50991 38.6175 5.38966 38.4747L5.38965 38.4747L39.7757 6.56525H39.7757C40.0777 6.85004 40.3965 7.16825 40.6834 7.48754L40.6834 7.48756L40.6844 7.48866L40.711 7.51845V7.51842Z" fill="#FF4242"/>
<path d="M43.6509 11.4203L9.97327 42.6676L9.42517 42.2697C9.247 42.1361 9.06884 42.0025 8.8996 41.8599L8.89551 41.8568L42.9293 10.28L42.9294 10.2801C43.178 10.6887 43.4179 11.0353 43.6489 11.4171L43.6509 11.4203L43.6509 11.4203V11.4203Z" fill="#FF4242"/>
<path d="M15.1389 45.43L46.0113 16.783L45.557 15.3934L13.8027 44.8686L13.8078 44.8709L15.1389 45.43Z" fill="#FF4242"/>
<path d="M46.9646 22.4487L20.7039 46.821C20.1453 46.7586 19.5868 46.6699 19.0459 46.5635L19.0386 46.562L46.8273 20.7328L46.8309 20.7651C46.8921 21.2497 46.9336 21.7321 46.9554 22.2124L46.9555 22.2131L46.9566 22.2387L46.9566 22.2393L46.9577 22.265L46.9577 22.2655L46.9588 22.2914C46.9609 22.344 46.9629 22.3964 46.9645 22.4487H46.9646Z" fill="#FF4242"/>
<path d="M46.6147 27.6878L46.6147 27.6878C46.6108 27.7119 46.6068 27.7359 46.6028 27.76L46.6028 27.76C46.5988 27.784 46.5947 27.8081 46.5906 27.8321L46.5906 27.8321L46.5844 27.8681L46.5843 27.8681L46.5781 27.9041L46.5781 27.9041L46.5717 27.9401V27.9401L46.5653 27.9761V27.9761L46.5588 28.0121V28.0121L46.5522 28.048V28.048L46.5455 28.084L46.5455 28.084L46.5388 28.1199L46.5388 28.1199L46.532 28.1558V28.1558L46.5251 28.1917V28.1917L46.5182 28.2276V28.2276L46.5112 28.2635V28.2635L46.5041 28.2993V28.2994C46.4993 28.3233 46.4945 28.3471 46.4897 28.371V28.371L46.4823 28.4068C46.4775 28.4307 46.4725 28.4546 46.4675 28.4784H46.4675L46.46 28.5142H46.46C46.4549 28.538 46.4498 28.5619 46.4447 28.5857H46.4447L46.4369 28.6214H46.4369L46.4291 28.6571H46.4291L46.4212 28.6928H46.4212L46.4132 28.7285H46.4132L46.4052 28.7641H46.4052L46.3971 28.7998L46.397 28.7998L46.3889 28.8354L46.3889 28.8354L46.3806 28.871H46.3806C46.3723 28.9066 46.3639 28.9422 46.3554 28.9777L46.3554 28.9777L46.3468 29.0132L46.3468 29.0132C46.3382 29.0488 46.3296 29.0843 46.3208 29.1198L46.3207 29.1198C46.309 29.1671 46.2971 29.2143 46.285 29.2615L46.285 29.2616C46.2607 29.356 46.2357 29.4502 46.2099 29.5442L46.2099 29.5443C46.1777 29.6618 46.1443 29.779 46.1097 29.8959L28.1684 46.5188C28.0724 46.5388 27.9762 46.5582 27.88 46.5769H27.8799L27.8439 46.5838H27.8438C27.8198 46.5885 27.7957 46.5931 27.7716 46.5976H27.7716L27.7355 46.6044H27.7355L27.6993 46.6112H27.6993L27.6632 46.6179H27.6632L27.627 46.6245H27.627L27.5909 46.631L27.5908 46.631L27.5547 46.6375L27.5546 46.6375L27.5184 46.644H27.5184L27.4822 46.6503L27.4822 46.6504L27.446 46.6567L27.446 46.6567L27.4098 46.6629H27.4098L27.3735 46.6691L27.3735 46.6691L27.3373 46.6752L27.3373 46.6753L27.301 46.6813L27.301 46.6813L27.2647 46.6873L27.2647 46.6874L27.2284 46.6933V46.6933L27.1921 46.6992L27.1921 46.6992L27.1558 46.705V46.705L27.1195 46.7108V46.7108L27.0832 46.7165L27.0832 46.7165C27.059 46.7203 27.0348 46.7241 27.0105 46.7278L27.0105 46.7278L26.9742 46.7333L26.9742 46.7333C26.9136 46.7425 26.853 46.7514 26.7923 46.7601V46.7601C26.4769 46.8052 26.1604 46.8436 25.8433 46.8751L46.6263 27.6154L46.6147 27.6878Z" fill="#FF4242"/>
<path d="M27.4033 2.17371H19.8109C18.8351 2.17371 17.8908 2.37225 17.0043 2.76378C16.1486 3.14176 15.3887 3.68015 14.7458 4.3641C14.6936 4.41965 14.6393 4.47968 14.5798 4.54763L14.5746 4.55352C14.568 4.56104 14.5614 4.5685 14.5548 4.57612C14.3172 4.85049 14.099 5.14639 13.9067 5.45525L13.9042 5.45936C13.8994 5.46684 13.8947 5.47436 13.8901 5.48187C13.8718 5.51164 13.854 5.5411 13.8364 5.57066L13.833 5.57635C13.8255 5.58895 13.818 5.60157 13.8106 5.61422C13.7947 5.64131 13.7792 5.66832 13.7638 5.69541C13.7538 5.7129 13.7438 5.73064 13.7339 5.74849C13.7195 5.77439 13.7055 5.79983 13.6917 5.82538C13.681 5.8452 13.6702 5.86543 13.6595 5.88563C13.6469 5.90967 13.6342 5.93386 13.6217 5.95823C13.6102 5.98061 13.5989 6.00325 13.5876 6.02588L13.5832 6.03467C13.5734 6.05433 13.5637 6.074 13.5541 6.09373C13.5427 6.11718 13.5313 6.14111 13.5202 6.16503L13.517 6.17173L13.5111 6.18426C13.5036 6.2001 13.4961 6.21593 13.4888 6.23185C13.4723 6.26772 13.4562 6.30421 13.4402 6.34082L13.4395 6.34221C13.435 6.35219 13.4306 6.36221 13.4263 6.37227C13.4069 6.41702 13.3869 6.46487 13.3671 6.51375C13.3623 6.52547 13.3575 6.53762 13.3528 6.54975L13.3499 6.55719C13.3364 6.59103 13.3231 6.62475 13.3102 6.65867C13.3049 6.67264 13.2997 6.68669 13.2946 6.70075L13.2906 6.71154C13.2792 6.7424 13.2676 6.77404 13.2564 6.80585C13.2505 6.82232 13.2448 6.839 13.239 6.85565L13.237 6.86167C13.2264 6.89232 13.2159 6.92323 13.2057 6.95427C13.1994 6.97355 13.1934 6.99224 13.1874 7.01091C13.1773 7.04288 13.1675 7.07435 13.1579 7.10594C13.1522 7.12458 13.1466 7.14335 13.141 7.16211C13.1315 7.19468 13.1222 7.22726 13.1132 7.25986L13.1104 7.26972C13.1064 7.28424 13.1023 7.2988 13.0984 7.31341C13.0888 7.3492 13.0797 7.38428 13.0709 7.41943L13.0684 7.42895C13.0652 7.44143 13.062 7.45391 13.059 7.46644C13.0486 7.50849 13.0389 7.55047 13.0294 7.59264C13.027 7.60291 13.025 7.61174 13.023 7.62062C13.0114 7.67302 13.0003 7.72617 12.99 7.77849C12.9882 7.78779 12.9868 7.79539 12.9854 7.8029C12.977 7.84626 12.9689 7.89042 12.9612 7.93478C12.959 7.94757 12.9568 7.96112 12.9546 7.97474L12.953 7.98447C12.9472 8.01993 12.9414 8.05581 12.936 8.09177C12.9337 8.10759 12.9314 8.12356 12.9292 8.13952L12.9277 8.15066C12.923 8.1839 12.9185 8.21693 12.9143 8.2501C12.9116 8.27162 12.9092 8.29247 12.9067 8.31336C12.9029 8.34601 12.8993 8.37832 12.896 8.41077C12.8939 8.43203 12.8917 8.45391 12.8897 8.47577C12.8867 8.50757 12.884 8.53979 12.8815 8.57202L12.8811 8.57686C12.8795 8.59699 12.8779 8.61712 12.8765 8.63732C12.8742 8.6707 12.8723 8.704 12.8704 8.73727L12.8697 8.74917C12.8688 8.76589 12.8678 8.78262 12.867 8.79935C12.8654 8.83609 12.8641 8.87259 12.863 8.90911L12.8627 8.91944C12.8621 8.93382 12.8616 8.94822 12.8613 8.9627C12.86 9.01934 12.8594 9.07268 12.8594 9.12536V10.1582V10.4115H12.8581V11.2912C11.5086 11.5879 10.5132 12.9855 10.5132 14.7045V15.7077V15.7259V15.7295V15.7331C10.518 16.578 10.7706 17.3867 11.2246 18.0101C11.6489 18.5926 12.2263 18.9787 12.8581 19.1151V19.2814C11.6014 19.7963 10.7138 21.0329 10.7138 22.4728C10.7138 23.9267 11.6185 25.1733 12.8947 25.679V27.2215C12.8947 27.4432 12.9015 27.6663 12.9149 27.8845C13.054 30.1615 13.9149 32.3229 15.3625 34.0679C15.3509 34.074 15.3407 34.0794 15.3321 34.0839L15.3156 34.0927L15.2994 34.1019C12.7648 35.5398 11.1932 38.2436 11.1977 41.1582V43.525C11.6139 43.7812 12.0387 44.0245 12.4715 44.255V41.1562C12.4676 38.6461 13.8324 36.3987 15.9279 35.2098C15.9279 35.2098 16.9983 34.6432 17.5761 34.4897C17.3546 34.3051 17.1414 34.111 16.9377 33.9074C15.3552 32.3253 14.3315 30.1844 14.1863 27.8063C14.1744 27.6131 14.1685 27.4177 14.1685 27.2216V24.6459C14.1659 24.6459 14.1634 24.6461 14.1609 24.6461C12.9606 24.6461 11.9876 23.6731 11.9876 22.4729C11.9876 21.2726 12.9606 20.2996 14.1609 20.2996C14.1634 20.2996 14.1659 20.2998 14.1685 20.2998V19.5365C14.1442 19.682 14.1319 19.8339 14.1319 19.9911V18.4621C13.9444 18.3472 13.8195 18.1408 13.8203 17.9044C13.8203 17.9016 13.8206 17.8989 13.8207 17.8961H13.7103H13.3707C12.4985 17.8961 11.7938 16.9238 11.787 15.7259V15.7077V14.7045C11.787 13.4914 12.4985 12.516 13.3829 12.5069H13.725H14.1319V10.4115C14.1319 10.4355 14.1326 10.4591 14.1332 10.4829V10.1582V9.12537C14.1332 9.08067 14.1338 9.03613 14.1348 8.99167C14.1351 8.97711 14.1358 8.96268 14.1362 8.94811C14.1371 8.91818 14.1381 8.88825 14.1395 8.85843C14.1403 8.84142 14.1413 8.82442 14.1423 8.80743C14.1438 8.78017 14.1453 8.75295 14.1472 8.72582C14.1485 8.70799 14.1499 8.69025 14.1513 8.67249C14.1533 8.64608 14.1556 8.61971 14.158 8.59339C14.1597 8.57564 14.1614 8.55791 14.1632 8.54018C14.1659 8.51377 14.1688 8.4874 14.1719 8.46108C14.1739 8.44385 14.1759 8.42662 14.1781 8.40941C14.1815 8.38219 14.1852 8.3551 14.189 8.32797C14.1912 8.31196 14.1935 8.29596 14.1958 8.27999C14.2002 8.25061 14.205 8.22131 14.2098 8.1921C14.2121 8.17855 14.2141 8.16501 14.2165 8.1515C14.2229 8.11434 14.2297 8.07732 14.2369 8.04038C14.2379 8.03503 14.2388 8.02963 14.2399 8.02424C14.2484 7.98107 14.2573 7.9381 14.2668 7.89525C14.2683 7.88859 14.2699 7.88196 14.2714 7.87525C14.2793 7.84002 14.2875 7.80485 14.2961 7.76988C14.2992 7.75693 14.3026 7.74406 14.3059 7.73115C14.3132 7.7024 14.3205 7.67375 14.3282 7.64521C14.3322 7.63051 14.3363 7.61591 14.3404 7.60127C14.3478 7.57456 14.3554 7.54793 14.3631 7.52139C14.3676 7.50606 14.3723 7.49082 14.3769 7.47557C14.3847 7.44985 14.3927 7.42415 14.4008 7.39856C14.4058 7.3831 14.4108 7.3676 14.4158 7.35215C14.4242 7.32676 14.4327 7.30145 14.4414 7.27624C14.4467 7.26104 14.4519 7.24588 14.4572 7.23076C14.4663 7.20494 14.4757 7.1793 14.4853 7.15366C14.4905 7.13943 14.4957 7.12512 14.5011 7.1109C14.5116 7.08321 14.5225 7.05575 14.5334 7.02827C14.5381 7.01634 14.5427 7.00436 14.5475 6.99252C14.5632 6.95372 14.5794 6.91513 14.5959 6.87674C14.5992 6.86909 14.6027 6.86154 14.6061 6.85389C14.6195 6.82332 14.633 6.79283 14.6468 6.76256C14.6544 6.74617 14.6621 6.72995 14.6698 6.71365C14.6798 6.69238 14.6898 6.67111 14.7 6.64997C14.7091 6.63141 14.7183 6.61297 14.7275 6.59455C14.7367 6.57613 14.7459 6.55769 14.7553 6.53935C14.7655 6.51953 14.7759 6.49977 14.7863 6.48008C14.7949 6.4636 14.8037 6.44717 14.8125 6.43074C14.8238 6.4099 14.8352 6.38909 14.8467 6.36841C14.8549 6.35381 14.8631 6.33929 14.8713 6.32481C14.8839 6.30264 14.8966 6.28056 14.9094 6.25861C14.9164 6.24663 14.9236 6.23478 14.9307 6.2229C14.9451 6.1987 14.9595 6.17459 14.9743 6.15064C14.9788 6.14324 14.9835 6.13599 14.9881 6.12864C15.146 5.87493 15.3233 5.63462 15.5181 5.40974C15.5247 5.40205 15.5315 5.39446 15.5382 5.38676C15.5827 5.33602 15.6278 5.28575 15.674 5.23659C16.7093 4.13517 18.1797 3.44757 19.8109 3.44757H27.4034C30.5393 3.44757 33.0816 5.9894 33.0816 9.12539V10.4115V12.5069H33.515C33.644 12.5069 33.7731 12.5252 33.8944 12.5521C34.2738 12.6434 34.6129 12.8534 34.8715 13.1541C34.9601 13.2545 35.041 13.3641 35.1136 13.4731C35.1862 13.5918 35.2427 13.7196 35.2991 13.8565C35.3639 14.0569 35.4122 14.2668 35.4365 14.4854C35.4448 14.5585 35.4448 14.6315 35.4448 14.7045V15.7077C35.4448 16.2275 35.2831 16.7108 35.0084 17.0938C34.8472 17.3124 34.6533 17.5041 34.4273 17.6319C34.3221 17.6953 34.2013 17.7592 34.08 17.7957C33.9022 17.8596 33.7167 17.8961 33.5228 17.8961H33.0816V19.9911C33.0816 19.9831 33.0812 19.9752 33.0812 19.9672V20.2999C34.2766 20.3055 35.244 21.2761 35.244 22.4729C35.244 23.6705 34.2752 24.6417 33.0785 24.6459V27.2216C33.0785 30.1564 31.7415 32.7786 29.6434 34.5128C30.2302 34.6571 30.7948 34.8812 31.3215 35.1786C31.3215 35.1786 31.543 35.3072 31.6511 35.3747C33.6158 36.6298 34.8073 38.7981 34.8136 41.1295V44.101C35.2466 43.8627 35.6715 43.6114 36.0874 43.3471V41.1295V41.1278L36.0873 41.1261C36.0837 39.7695 35.7365 38.4239 35.0831 37.235C34.4297 36.0461 33.4801 35.0316 32.3368 34.3012L32.3315 34.2978L32.3261 34.2945C32.204 34.2182 31.9855 34.0912 31.961 34.0769L31.9545 34.0732L31.948 34.0695C31.9335 34.0613 31.919 34.0532 31.9045 34.0451C33.4778 32.1396 34.3523 29.7407 34.3523 27.2216V25.6746C34.7818 25.5028 35.1759 25.2436 35.5122 24.9062C36.1607 24.2556 36.5178 23.3914 36.5178 22.4729C36.5178 21.555 36.1611 20.6913 35.5135 20.0409C35.1778 19.7037 34.7844 19.4445 34.3554 19.2724V19.0457C34.3977 19.033 34.4399 19.0193 34.4819 19.0047C34.6713 18.9442 34.8645 18.8545 35.0707 18.7313C35.431 18.5243 35.7548 18.2278 36.0336 17.8498L36.0385 17.8431L36.0434 17.8363C36.4851 17.2206 36.7186 16.4845 36.7186 15.7077V14.7045C36.7186 14.6126 36.7186 14.4868 36.7023 14.3425C36.67 14.053 36.6057 13.757 36.5112 13.4648L36.4958 13.417L36.4766 13.3706C36.4041 13.1946 36.3203 13.0047 36.2002 12.8084L36.1876 12.7878L36.1741 12.7676C36.0619 12.5989 35.9498 12.4515 35.8316 12.317C35.4342 11.8573 34.9267 11.528 34.3554 11.3576V10.4115V9.12542C34.3554 8.18743 34.1714 7.27691 33.8086 6.41902C33.4584 5.59105 32.9572 4.84777 32.3192 4.20977C31.6811 3.57177 30.9378 3.07073 30.1098 2.72056C29.2519 2.35779 28.3414 2.1738 27.4034 2.1738L27.4033 2.17371Z" fill="white"/>
<path d="M31.6508 35.3746C30.9674 34.9475 30.2132 34.6459 29.4237 34.4838C28.9491 34.3844 28.4655 34.3336 27.9806 34.3324H19.2594C18.7739 34.3249 18.2894 34.3758 17.8162 34.4838C14.6895 35.1779 12.4662 37.9532 12.4712 41.1561V44.255C15.7601 46.0062 19.5136 47 23.4997 47C27.6014 47 31.457 45.9481 34.8132 44.101V41.1294C34.807 38.798 33.6155 36.6298 31.6508 35.3746H31.6508Z" fill="#E94545"/>
<path d="M31.6508 35.3746C30.9674 34.9475 30.2132 34.6459 29.4237 34.4838C28.9491 34.3844 28.4655 34.3336 27.9806 34.3324H19.2594C18.7739 34.3249 18.2894 34.3758 17.8162 34.4838C14.6895 35.1779 12.4662 37.9532 12.4712 41.1561V44.255M34.8132 44.101V41.1294C34.807 38.798 33.6155 36.6298 31.6508 35.3746" stroke="#3F0F0F" stroke-width="0.849212" stroke-miterlimit="10"/>
<path d="M19.1664 34.3317C18.7121 34.3317 18.2592 34.3827 17.8162 34.4839C14.6894 35.1779 12.4661 37.9533 12.4712 41.1562V44.255C12.7512 44.4041 13.0338 44.5489 13.3204 44.6868V41.1548C13.3183 39.7985 13.7841 38.4686 14.632 37.4101C15.48 36.3516 16.6762 35.6068 18.0002 35.3128L18.0027 35.3123L18.0052 35.3117C18.3855 35.2249 18.7762 35.1809 19.1664 35.1809C19.193 35.1809 19.2197 35.1811 19.2463 35.1815L19.2528 35.1816H19.2593H27.98C28.4058 35.1828 28.8328 35.2277 29.2495 35.315L29.2512 35.3153L29.253 35.3157C29.9442 35.4576 30.5982 35.7189 31.1969 36.0925C32.0399 36.6318 32.7402 37.3803 33.2222 38.2574C33.7046 39.1352 33.961 40.1284 33.964 41.13V44.5454C34.2504 44.4027 34.5336 44.2548 34.8132 44.101V41.1294C34.807 38.798 33.6155 36.6298 31.6507 35.3746C30.9674 34.9476 30.2131 34.6458 29.4237 34.4839C28.949 34.3844 28.4655 34.3336 27.9805 34.3324H19.2593C19.2283 34.3319 19.1973 34.3317 19.1664 34.3317L19.1664 34.3317Z" fill="#C21D1D"/>
<path d="M34.769 41.1293V44.126C34.1614 44.4586 33.537 44.7644 32.8982 45.0435V41.1561C32.9068 37.952 30.6823 35.1747 27.5534 34.4839C27.1445 34.3901 26.7271 34.3395 26.3076 34.3323H27.981C28.4659 34.3336 28.9495 34.3845 29.4242 34.4839C30.2135 34.6457 30.968 34.9476 31.6512 35.3747C33.6027 36.6366 34.7775 38.8055 34.769 41.1293H34.769Z" fill="#C21D1D"/>
<path d="M31.3213 35.1786V45.6651C30.6573 45.8994 29.9799 46.1054 29.29 46.2804V34.4304L29.397 34.4572C30.0721 34.596 30.7214 34.8398 31.3213 35.1786V35.1786Z" fill="#5A80A2"/>
<path d="M15.9277 35.1787V45.753C16.5889 45.9779 17.2638 46.1728 17.9499 46.339V34.4304H17.8163C17.1518 34.5805 16.5147 34.8329 15.9277 35.1787V35.1787Z" fill="#5A80A2"/>
<path d="M31.6508 35.3746C30.9674 34.9475 30.2132 34.6459 29.4237 34.4838C28.9491 34.3844 28.4655 34.3336 27.9806 34.3324H19.2594C18.7739 34.3249 18.2894 34.3758 17.8162 34.4838C14.6895 35.1779 12.4662 37.9532 12.4712 41.1561V44.255M34.8132 44.101V41.1294C34.807 38.798 33.6155 36.6298 31.6508 35.3746" stroke="#3F0F0F" stroke-width="0.849212" stroke-miterlimit="10"/>
<path d="M23.9402 41.352H23.2863C23.1395 41.352 23.0205 41.2331 23.0205 41.0863V40.4323C23.0205 40.2855 23.1395 40.1666 23.2863 40.1666H23.9402C24.087 40.1666 24.206 40.2855 24.206 40.4323V41.0863C24.206 41.2331 24.087 41.352 23.9402 41.352Z" fill="#3F0F0F"/>
<path d="M23.9402 44.947H23.2863C23.1395 44.947 23.0205 44.828 23.0205 44.6813V44.0273C23.0205 43.8806 23.1395 43.7615 23.2863 43.7615H23.9402C24.087 43.7615 24.206 43.8806 24.206 44.0273V44.6813C24.206 44.828 24.087 44.947 23.9402 44.947Z" fill="#3F0F0F"/>
<path d="M35.2439 22.4728C35.2439 23.6731 34.271 24.646 33.0707 24.646C31.8705 24.646 30.8975 23.6731 30.8975 22.4728C30.8975 21.2725 31.8705 20.2996 33.0707 20.2996C34.271 20.2996 35.2439 21.2725 35.2439 22.4728Z" fill="#EFA065"/>
<path d="M35.2439 22.4728C35.2439 23.6731 34.271 24.646 33.0707 24.646C31.8705 24.646 30.8975 23.6731 30.8975 22.4728C30.8975 21.2725 31.8705 20.2996 33.0707 20.2996C34.271 20.2996 35.2439 21.2725 35.2439 22.4728Z" stroke="#3F0F0F" stroke-width="0.849212" stroke-miterlimit="10"/>
<path d="M33.0825 22.793C33.542 22.7956 33.8363 22.6202 33.8595 22.1527" stroke="#3F0F0F" stroke-width="0.849212" stroke-miterlimit="10" stroke-linecap="round" stroke-linejoin="round"/>
<path d="M11.9878 22.4728C11.9878 23.6731 12.9608 24.646 14.161 24.646C15.3612 24.646 16.3343 23.6731 16.3343 22.4728C16.3343 21.2725 15.3612 20.2996 14.161 20.2996C12.9608 20.2996 11.9878 21.2725 11.9878 22.4728Z" fill="#EFA065"/>
<path d="M11.9878 22.4728C11.9878 23.6731 12.9608 24.646 14.161 24.646C15.3612 24.646 16.3343 23.6731 16.3343 22.4728C16.3343 21.2725 15.3612 20.2996 14.161 20.2996C12.9608 20.2996 11.9878 21.2725 11.9878 22.4728Z" stroke="#3F0F0F" stroke-width="0.849212" stroke-miterlimit="10"/>
<path d="M14.1495 22.793C13.69 22.7956 13.3957 22.6202 13.3726 22.1527" stroke="#3F0F0F" stroke-width="0.849212" stroke-miterlimit="10" stroke-linecap="round" stroke-linejoin="round"/>
<path d="M27.1634 25.1457V33.1887L23.6161 36.2983L20.0688 33.1887V25.1457H27.1634Z" fill="#F59D40"/>
<path d="M14.1685 16.4005V22.0269C14.3307 27.2471 18.6939 31.3474 23.914 31.1852C28.9063 31.0301 32.9172 27.0193 33.0723 22.0269V16.4005H14.1685Z" fill="#F9BC86"/>
<path d="M33.0813 16.4005V22.0908C33.073 26.8537 29.5267 30.8685 24.8012 31.4653H23.1508C27.6221 31.1902 31.1062 27.4822 31.1027 23.0027L31.0727 19.7868C31.0606 19.2765 30.9597 18.5637 30.1482 18.5585H16.3627C15.5157 18.5585 14.8291 19.2451 14.8291 20.092V26.6559H14.1919V18.495C13.9714 18.39 13.8195 18.1652 13.8203 17.9044C13.8214 17.5468 14.1327 17.2545 14.4903 17.2545H28.4353L28.3518 16.6447L31.1027 16.9025V16.4005H33.0812H33.0813Z" fill="#EFA065"/>
<path d="M28.1053 22.0157H27.4934C27.1651 22.0157 26.8989 21.7496 26.8989 21.4213V20.8093C26.8989 20.481 27.1651 20.2149 27.4934 20.2149H28.1053C28.4336 20.2149 28.6997 20.481 28.6997 20.8093V21.4213C28.6997 21.7496 28.4336 22.0157 28.1053 22.0157Z" fill="#3F0F0F"/>
<path d="M21.3453 29.2651C21.3449 29.2524 21.3449 29.2405 21.3449 29.2282V28.9088C21.3495 27.6669 22.3554 26.6615 23.5974 26.6564C23.6131 26.6559 23.628 26.6559 23.6437 26.6559C24.8716 26.6559 25.8792 27.6384 25.9038 28.8719C25.9042 28.8842 25.9042 28.8965 25.9042 28.9088V29.2282C25.9042 29.9729 25.3004 30.5776 24.5549 30.5776H22.7312C21.986 30.5975 21.3653 30.0099 21.3453 29.2651V29.2651ZM32.4443 24.2221C32.4443 24.2225 32.4443 24.2225 32.4439 24.223C31.7268 26.1706 30.4144 28.7356 28.4756 28.7356V27.8236C28.479 26.2232 27.623 24.8212 26.342 24.0557C26.342 24.0553 26.3416 24.0553 26.3412 24.0553C26.2588 24.0056 26.1743 23.9588 26.0885 23.9151C25.4945 23.6107 24.8211 23.4392 24.1082 23.4375H23.1685C22.2518 23.4375 21.4001 23.7194 20.6969 24.2018C20.6511 24.2331 20.6061 24.2654 20.5615 24.299H20.5611C20.5606 24.299 20.5606 24.2994 20.5602 24.3002C19.4868 25.0968 18.7913 26.3744 18.7913 27.8147V28.7267C16.6416 28.7267 15.4684 26.7617 14.8451 24.9665C14.8451 24.966 14.8447 24.9652 14.8447 24.9648C14.8438 24.9622 14.843 24.9592 14.8421 24.9566C14.3738 23.6052 14.2171 22.3518 14.1912 22.111C14.1908 22.1072 14.1903 22.1038 14.1899 22.1004C14.1886 22.0915 14.1878 22.0838 14.1874 22.0783C14.1874 22.0766 14.1869 22.0749 14.1869 22.0732C14.1865 22.0707 14.1865 22.0694 14.1865 22.0694V27.8062C14.3317 30.1843 15.3555 32.3252 16.9379 33.9073C18.6491 35.6184 21.0128 36.6765 23.6237 36.6765C28.8455 36.6765 33.0787 32.4436 33.0787 27.2215V22.1543C33.0159 22.4137 32.8061 23.2396 32.4443 24.2221L32.4443 24.2221Z" fill="#494756"/>
<path d="M28.1285 20.7446C28.1285 20.911 27.9936 21.0459 27.8272 21.0459C27.6607 21.0459 27.5259 20.911 27.5259 20.7446C27.5259 20.5782 27.6607 20.4432 27.8272 20.4432C27.9936 20.4432 28.1285 20.5782 28.1285 20.7446Z" fill="white"/>
<path d="M32.4444 24.2221C32.4444 24.2226 32.4444 24.2226 32.444 24.223L32.4418 27.2216C32.4418 28.4121 32.2087 29.567 31.7493 30.654C31.3052 31.704 30.6691 32.6471 29.859 33.4568C29.0488 34.2669 28.1058 34.903 27.0558 35.3471C25.9692 35.8065 24.8143 36.0396 23.6237 36.0396C22.4332 36.0396 21.2782 35.8065 20.1917 35.3471C19.1416 34.903 18.1986 34.2669 17.3885 33.4568C15.8692 31.938 14.9589 29.925 14.8234 27.7862L14.8421 24.9567C14.3738 23.6052 14.2171 22.3518 14.1912 22.111C14.1908 22.1072 14.1903 22.1038 14.19 22.1004C14.1886 22.0915 14.1878 22.0838 14.1874 22.0783C14.1874 22.0766 14.187 22.0749 14.187 22.0732C14.1865 22.0707 14.1865 22.0694 14.1865 22.0694V27.8062C14.3317 30.1844 15.3555 32.3252 16.9379 33.9073C18.6491 35.6184 21.0128 36.6765 23.6237 36.6765C28.8455 36.6765 33.0787 32.4437 33.0787 27.2215V22.1543C33.0159 22.4137 32.8062 23.2396 32.4444 24.2221V24.2221Z" fill="#302F3D"/>
<path d="M19.094 22.0157H19.7059C20.0342 22.0157 20.3003 21.7496 20.3003 21.4213V20.8093C20.3003 20.481 20.0342 20.2149 19.7059 20.2149H19.094C18.7656 20.2149 18.4995 20.481 18.4995 20.8093V21.4213C18.4995 21.7496 18.7656 22.0157 19.094 22.0157Z" fill="#3F0F0F"/>
<path d="M19.0708 20.7446C19.0708 20.911 19.2057 21.0459 19.3721 21.0459C19.5386 21.0459 19.6735 20.911 19.6735 20.7446C19.6735 20.5782 19.5386 20.4432 19.3721 20.4432C19.2057 20.4432 19.0708 20.5782 19.0708 20.7446Z" fill="white"/>
<path d="M33.0785 15.3955V27.2215C33.0785 32.4437 28.8452 36.6766 23.6235 36.6766C21.0126 36.6766 18.6488 35.6185 16.9377 33.9073C15.3552 32.3253 14.3315 30.1844 14.1863 27.8062C14.1744 27.613 14.1685 27.4177 14.1685 27.2215V15.3955C14.1685 14.8193 14.6355 14.3523 15.2117 14.3523H32.0353C32.6114 14.3523 33.0785 14.8193 33.0785 15.3955" stroke="#3F0F0F" stroke-width="0.849212" stroke-miterlimit="10"/>
<path d="M35.4449 14.7045V15.7076C35.4449 16.2275 35.2832 16.7108 35.0086 17.0937C34.8473 17.3123 34.6534 17.504 34.4274 17.6318C34.3223 17.6953 34.2014 17.7591 34.0801 17.7956C33.9024 17.8595 33.7168 17.8961 33.5229 17.8961H13.7104C12.6512 17.8961 11.7954 16.9238 11.7871 15.7259V15.7076V14.7045C11.7871 13.4914 12.6512 12.516 13.7252 12.5069H27.3749H27.3909H31.7469H31.763H33.5151C33.6442 12.5069 33.7733 12.5252 33.8945 12.5521C34.274 12.6434 34.613 12.8533 34.8716 13.1541C34.9603 13.2545 35.0411 13.364 35.1137 13.4731C35.1863 13.5917 35.2428 13.7196 35.2993 13.8565C35.3641 14.0568 35.4123 14.2667 35.4367 14.4854C35.4449 14.5584 35.4449 14.6314 35.4449 14.7045H35.4449Z" fill="#C21D1D"/>
<path d="M35.4449 14.7045V15.7076C35.4449 16.2275 35.2832 16.7108 35.0086 17.0937C34.8473 17.3123 34.6534 17.504 34.4274 17.6318C34.3223 17.6953 34.2014 17.7591 34.0801 17.7956C33.9024 17.8595 33.7168 17.8961 33.5229 17.8961H13.7104C12.6512 17.8961 11.7954 16.9238 11.7871 15.7259V15.7076V14.7045C11.7871 13.4914 12.6512 12.516 13.7252 12.5069H27.3749H27.3909H31.7469H31.763H33.5151C33.6442 12.5069 33.7733 12.5252 33.8945 12.5521C34.274 12.6434 34.613 12.8533 34.8716 13.1541C34.9603 13.2545 35.0411 13.364 35.1137 13.4731C35.1863 13.5917 35.2428 13.7196 35.2993 13.8565C35.3641 14.0568 35.4123 14.2667 35.4367 14.4854C35.4449 14.5584 35.4449 14.6314 35.4449 14.7045" stroke="#3F0F0F" stroke-width="0.849212" stroke-miterlimit="10"/>
<path d="M31.0644 14.7051C31.1962 15.8413 30.9901 17.2629 29.8069 17.7635C29.5998 17.8511 29.3761 17.8961 29.1512 17.8961H13.7104C12.6512 17.8961 11.7954 16.9237 11.7871 15.7259V15.7076V14.7045C11.7871 13.4914 12.6512 12.516 13.7252 12.5069H27.3748H27.3909H29.143C30.2869 12.5069 30.9225 13.6153 31.0549 14.6281C31.0582 14.6536 31.0614 14.6793 31.0644 14.7051Z" fill="#E94545"/>
<path d="M29.6795 12.5069H28.2368H28.2235H24.6365H24.6232H13.383C12.4986 12.516 11.7871 13.4914 11.7871 14.7045V15.7076V15.7259C11.7939 16.9238 12.4986 17.8961 13.3709 17.8961H29.686C29.8456 17.8961 29.9985 17.8595 30.1448 17.7957C30.2447 17.7592 30.3442 17.6953 30.4308 17.6318C30.6169 17.504 30.7766 17.3124 30.9094 17.0937C31.1356 16.7108 31.2687 16.2275 31.2687 15.7076V14.7045C31.2687 14.6314 31.2687 14.5584 31.2619 14.4854C31.2419 14.2668 31.2022 14.0569 31.1488 13.8565C31.1023 13.7196 31.0558 13.5918 30.996 13.4731C30.9362 13.364 30.8696 13.2545 30.7966 13.1541C30.5837 12.8533 30.3045 12.6434 29.992 12.5521C29.8922 12.5252 29.7858 12.5069 29.6795 12.5069ZM29.6795 13.3561C29.6867 13.3561 29.7129 13.3571 29.7618 13.3696C29.8852 13.4082 30.0032 13.5031 30.1035 13.6448L30.1067 13.6492L30.1098 13.6535C30.1524 13.712 30.1972 13.7837 30.2433 13.8668C30.2737 13.9293 30.3026 14.0068 30.3351 14.1016C30.3752 14.2575 30.4024 14.4126 30.4164 14.5641C30.4195 14.5979 30.4195 14.6496 30.4195 14.7045V15.7076C30.4195 16.0576 30.3347 16.3948 30.1807 16.6576C30.0705 16.8378 29.9829 16.9093 29.9501 16.9317L29.9394 16.9391L29.929 16.9468C29.8796 16.9829 29.8547 16.9966 29.8473 17.0003L29.8289 17.007L29.8051 17.0174C29.7597 17.0372 29.7207 17.0469 29.686 17.0469H13.3709C13.035 17.0469 12.6413 16.4689 12.6363 15.7233V15.7076V14.7045C12.6363 13.9394 13.0328 13.3632 13.3887 13.3561H24.6232H24.6365H28.2235H28.2367H29.6795L29.6795 13.3561Z" fill="#C21D1D"/>
<path d="M35.4449 14.7045V15.7076C35.4449 16.2275 35.2832 16.7108 35.0086 17.0937C34.8473 17.3123 34.6534 17.504 34.4274 17.6318C34.3223 17.6953 34.2014 17.7591 34.0801 17.7956C33.9024 17.8595 33.7168 17.8961 33.5229 17.8961H13.7104C12.6512 17.8961 11.7954 16.9238 11.7871 15.7259V15.7076V14.7045C11.7871 13.4914 12.6512 12.516 13.7252 12.5069H27.3749H27.3909H31.7469H31.763H33.5151C33.6442 12.5069 33.7733 12.5252 33.8945 12.5521C34.274 12.6434 34.613 12.8533 34.8716 13.1541C34.9603 13.2545 35.0411 13.364 35.1137 13.4731C35.1863 13.5917 35.2428 13.7196 35.2993 13.8565C35.3641 14.0568 35.4123 14.2667 35.4367 14.4854C35.4449 14.5584 35.4449 14.6314 35.4449 14.7045" stroke="#3F0F0F" stroke-width="0.849212" stroke-miterlimit="10"/>
<path d="M33.0817 9.12531V12.5069H14.1333V9.12531C14.1333 7.78009 14.601 6.54438 15.3834 5.57165C15.4755 5.45603 15.5729 5.34432 15.6741 5.23656C16.7095 4.13515 18.1799 3.44754 19.8111 3.44754H27.4035C30.5395 3.44754 33.0817 5.98933 33.0817 9.12531Z" fill="#C21D1D"/>
<path d="M33.0817 9.12531V12.5069H14.1333V9.12531C14.1333 7.78009 14.601 6.54438 15.3834 5.57165C15.4755 5.45603 15.5729 5.34432 15.6741 5.23656C16.7095 4.13515 18.1799 3.44754 19.8111 3.44754H27.4035C30.5395 3.44754 33.0817 5.98933 33.0817 9.12531Z" stroke="#3F0F0F" stroke-width="0.849212" stroke-miterlimit="10"/>
<path d="M31.0728 10.7096V12.5069H14.1333V9.1253C14.1333 7.78008 14.601 6.54441 15.3833 5.57164C16.117 5.2252 16.9368 5.0318 17.8022 5.0318H25.3946C28.5305 5.0318 31.0728 7.57364 31.0728 10.7096Z" fill="#E94545"/>
<path d="M27.4035 3.44752H19.8111C18.1799 3.44752 16.7094 4.13513 15.6741 5.23654C15.5728 5.3443 15.4755 5.45602 15.3833 5.57164C14.601 6.54439 14.1333 7.78007 14.1333 9.12531V10.1581C14.1333 11.4553 15.1849 12.5069 16.482 12.5069H32.2925L32.2124 9.12571C32.2124 5.98973 30.5395 3.44751 27.4035 3.44751L27.4035 3.44752ZM27.4035 4.29673C28.6359 4.29673 29.6161 4.74749 30.3171 5.63644C30.9917 6.49196 31.3632 7.73116 31.3632 9.12573V9.13579L31.3635 9.14586L31.4229 11.6577H16.482C15.6552 11.6577 14.9825 10.985 14.9825 10.1581V9.12532C14.9825 8.01294 15.3499 6.96816 16.0451 6.10388L16.0462 6.1024L16.0474 6.10091C16.1224 6.00677 16.205 5.91164 16.2928 5.81817C16.7399 5.34253 17.2679 4.96829 17.8622 4.7058C18.4768 4.43435 19.1325 4.29675 19.8111 4.29675H27.4035L27.4035 4.29673Z" fill="#C21D1D"/>
<path d="M33.0817 9.12531V12.5069H14.1333V9.12531C14.1333 7.62057 14.7188 6.25275 15.6741 5.23656C16.7095 4.13515 18.1799 3.44754 19.8111 3.44754H27.4035C30.5395 3.44754 33.0817 5.98933 33.0817 9.12531" stroke="#3F0F0F" stroke-width="0.849212" stroke-miterlimit="10"/>
<path d="M33.0814 10.4114C33.0814 11.6091 32.3887 12.5069 30.8047 12.5069H33.0814V10.4114Z" fill="#3F0F0F"/>
<path d="M33.0814 10.4114C33.0814 11.6091 32.3887 12.5069 30.8047 12.5069H33.0814V10.4114Z" stroke="#3F0F0F" stroke-width="0.849212" stroke-miterlimit="10"/>
<path d="M14.1318 10.4114C14.1318 11.6091 14.8244 12.5069 16.4085 12.5069H14.1318V10.4114Z" fill="#3F0F0F"/>
<path d="M14.1318 10.4114C14.1318 11.6091 14.8244 12.5069 16.4085 12.5069H14.1318V10.4114Z" stroke="#3F0F0F" stroke-width="0.849212" stroke-miterlimit="10"/>
<path d="M33.0814 19.9911C33.0814 18.7934 32.3887 17.8956 30.8047 17.8956H33.0814V19.9911Z" fill="#3F0F0F"/>
<path d="M33.0814 19.9911C33.0814 18.7934 32.3887 17.8956 30.8047 17.8956H33.0814V19.9911Z" stroke="#3F0F0F" stroke-width="0.849212" stroke-miterlimit="10"/>
<path d="M14.1318 19.9911C14.1318 18.7934 14.8244 17.8956 16.4085 17.8956H14.1318V19.9911Z" fill="#3F0F0F"/>
<path d="M14.1318 19.9911C14.1318 18.7934 14.8244 17.8956 16.4085 17.8956H14.1318V19.9911Z" stroke="#3F0F0F" stroke-width="0.849212" stroke-miterlimit="10"/>
</svg>
